<svg xmlns="http://www.w3.org/2000/svg" version="1.1" xmlns:xlink="http://www.w3.org/1999/xlink" xmlns:svgjs="http://svgjs.dev/svgjs" width="1440" height="560" preserveAspectRatio="none" viewBox="0 0 1440 560">
    <g mask="url(&quot;#SvgjsMask1011&quot;)" fill="none">
        <rect width="1440" height="560" x="0" y="0" fill="rgba(247, 247, 247, 1)"></rect>
        <path d="M110.7 0C149.27 36.54 100.7 118.19 140 132.63C185.35 149.3 207.19 89.96 280 62.22C347.19 36.61 353.08 50.16 420 25.93C438.99 19.05 432.57 3.57 451.82 0C502.57 -9.4 505.91 0 560 0C619.5 0 623.99 -9.71 679 0C693.99 2.65 690.05 24.71 700 24.71C709.3 24.71 703.63 2.45 717.5 0C773.63 -9.91 778.75 0 840 0C910 0 910 0 980 0C1050 0 1050 0 1120 0C1190 0 1190 0 1260 0C1318.17 0 1321.12 -7.98 1376.34 0C1391.12 2.14 1386.15 20.24 1400 20.24C1429.09 20.24 1430.24 4.62 1462.22 0C1500.24 -5.5 1521.7 -20.59 1540 0C1560.59 23.16 1544.84 44.46 1540 87.5C1536.97 114.46 1524.25 114.39 1524.25 140C1524.25 156.79 1538.03 154.79 1540 172.31C1545.9 224.79 1540 226.15 1540 280C1540 333.85 1550.64 338.02 1540 387.69C1535.64 408.02 1510 403.85 1510 420C1510 436.15 1535.64 431.98 1540 452.31C1550.64 501.98 1570.43 536.59 1540 560C1500.43 590.43 1470 560 1400 560C1330 560 1330 560 1260 560C1222.44 560 1215.2 576 1184.88 560C1145.2 539.06 1147.67 486.11 1120 486.11C1096.76 486.11 1114.2 543.56 1083.06 560C1044.2 580.51 1031.53 560 980 560C910 560 910 560 840 560C770 560 770 560 700 560C630 560 630 560 560 560C490 560 490 560 420 560C350 560 350 560 280 560C210 560 210 560 140 560C70 560 52.5 577.5 0 560C-17.5 554.17 -5.48 535.69 0 513.33C11.67 465.69 34.29 463.32 34.29 420C34.29 397.78 5.71 405.54 0 382.25C-11.44 335.54 0 331.13 0 280C0 210 0 210 0 140C0 70 -30.91 39.09 0 0C24.44 -30.91 79.27 -29.78 110.7 0" stroke="rgba(44, 89, 84, 1)" stroke-width="2"></path>
        <path d="M980 94.71C952.87 94.71 934.03 118.07 934.03 140C934.03 160.71 953.53 180 980 180C1027.85 180 1082.67 161.13 1082.67 140C1082.67 118.48 1027.19 94.71 980 94.71" stroke="rgba(44, 89, 84, 1)" stroke-width="2"></path>
        <path d="M1400 244.63C1335.11 244.63 1265.6 257.06 1265.6 280C1265.6 304.22 1337.94 338.95 1400 338.95C1436.25 338.95 1462.22 305.7 1462.22 280C1462.22 258.54 1433.42 244.63 1400 244.63" stroke="rgba(44, 89, 84, 1)" stroke-width="2"></path>
        <path d="M420 387.33C352.77 388.94 286.36 402.71 286.36 420C286.36 437.42 355.58 432.03 420 456.75C492.4 484.53 513.41 535.92 560 525C591.81 517.54 576.8 467.69 576.8 420C576.8 411.91 568.81 415.28 560 413.44C490.41 398.94 489.59 385.66 420 387.33" stroke="rgba(44, 89, 84, 1)" stroke-width="2"></path>
        <path d="M70 0C70 43.29 18.64 128.09 0 128.09C-16.36 128.09 -22.63 41.41 0 0C12.37 -22.63 70 -20.76 70 0" stroke="rgba(44, 89, 84, 1)" stroke-width="2"></path>
        <path d="M295.22 140C319.33 87.17 360.54 108.85 420 69.14C465.35 38.85 458.3 22.99 504.85 0C528.3 -11.58 532.42 0 560 0C590.34 0 597.48 -15.46 620.67 0C667.48 31.21 662.39 93.33 700 93.33C735.11 93.33 723.58 28.35 766.11 0C793.58 -18.32 803.06 0 840 0C910 0 910 0 980 0C1050 0 1050 0 1120 0C1190 0 1190 0 1260 0C1293.52 0 1298.26 -12.83 1327.04 0C1368.26 18.37 1364.55 30.07 1400 62.41C1441.28 100.07 1480.5 102.56 1480.5 140C1480.5 175.25 1447.22 195.8 1400 207.79C1336.97 223.8 1318.32 175.42 1260 196C1216.01 211.52 1195.38 238.57 1195.38 280C1195.38 319.64 1218.11 333.5 1260 358.14C1320.42 393.67 1332.06 375.13 1400 400.35C1415.39 406.06 1415.06 408.25 1426.67 420C1485.06 479.1 1488.85 478.86 1540 542.05C1545.51 548.86 1547.96 558.98 1540 560C1477.96 567.96 1470 560 1400 560C1334.12 560 1328.7 568.24 1268.24 560C1258.7 558.7 1266.28 549.14 1260 540.91C1212.9 479.14 1214.02 477.05 1161.48 420C1144.02 401.04 1142.87 388.89 1120 388.89C1082.13 388.89 1056.25 387.5 1040 420C1013.47 473.05 1056.05 509.59 1034.44 560C1026.05 579.59 1007.22 560 980 560C910 560 910 560 840 560C798.27 560 774.78 586.06 756.54 560C725.78 516.06 762.54 482.59 742 420C734.27 396.44 724.61 395.97 700 387.69C633.61 365.35 630.64 368.65 560 358.75C490.64 349.03 484.15 369.82 420 348.44C366.03 330.45 351.98 327.16 323.75 280C289.59 222.94 271.21 192.6 295.22 140" stroke="rgba(44, 89, 84, 1)" stroke-width="2"></path>
        <path d="M980 43.24C921.84 58.14 881.79 93.14 881.79 140C881.79 184.25 923.39 212.88 980 225.45C1042.5 239.33 1054.62 219.23 1120 192.89C1160.68 176.5 1192.12 167.7 1192.12 140C1192.12 110.74 1161.93 98.1 1120 78.97C1055.87 49.72 1040.95 27.62 980 43.24" stroke="rgba(44, 89, 84, 1)" stroke-width="2"></path>
        <path d="M0 152.73C37.53 130.73 77.28 162.94 140 197.93C191.35 226.58 206.43 228.68 228.15 280C253.42 339.71 216.48 356.09 233.97 420C242.4 450.8 250.22 456.52 280 469.41C343.24 496.77 354.95 473.96 420 500.5C465.98 519.26 502.07 543.56 502.07 560C502.07 573.31 461.03 560 420 560C350 560 350 560 280 560C226.89 560 222.66 570.86 173.79 560C152.66 555.3 153.59 547.22 140 528.89C101.7 477.22 108.8 471.53 70 420C38.8 378.55 21.82 386.55 0 342.92C-13.18 316.55 0 311.46 0 280C0 216.37 -32.47 171.76 0 152.73" stroke="rgba(44, 89, 84, 1)" stroke-width="2"></path>
        <path d="M1527.04 280C1527.04 271.02 1536.42 262.05 1540 262.05C1542.9 262.05 1540 271.02 1540 280C1540 288.98 1542.9 297.95 1540 297.95C1536.42 297.95 1527.04 288.98 1527.04 280" stroke="rgba(44, 89, 84, 1)" stroke-width="2"></path>
        <path d="M29.3 0C29.3 18.12 7.8 53.62 0 53.62C-6.85 53.62 -9.47 17.34 0 0C5.18 -9.47 29.3 -8.69 29.3 0" stroke="rgba(44, 89, 84, 1)" stroke-width="2"></path>
        <path d="M371.3 140C377.23 116.07 397.66 129.11 420 112.35C490.95 59.11 488.7 55.51 557.88 0C558.7 -0.66 558.94 0 560 0C561.16 0 561.75 -1 562.33 0C602.28 69 625.93 65.62 641.05 140C654.38 205.62 647.16 223.47 619.23 280C606.63 305.5 591.21 299.43 560 304.06C491.6 314.21 486.55 318.38 420 309.56C395.77 306.35 384.94 302.62 378.44 280C360.59 217.84 356.45 199.9 371.3 140" stroke="rgba(44, 89, 84, 1)" stroke-width="2"></path>
        <path d="M840 101.11C812.58 101.11 814.72 40.69 814.72 0C814.72 -9.87 827.36 0 840 0C893.53 0 947.06 -21.28 947.06 0C947.06 29.27 878.75 101.11 840 101.11" stroke="rgba(44, 89, 84, 1)" stroke-width="2"></path>
        <path d="M1260 70C1220.96 70 1155 19.1 1155 0C1155 -15.9 1207.5 0 1260 0C1268.88 0 1277.75 -6.91 1277.75 0C1277.75 28.09 1282.34 70 1260 70" stroke="rgba(44, 89, 84, 1)" stroke-width="2"></path>
        <path d="M1302 140C1302 123.29 1354.78 104.58 1400 104.58C1422.15 104.58 1436.75 122.91 1436.75 140C1436.75 156.09 1421.46 170.95 1400 170.95C1354.09 170.95 1302 156.48 1302 140" stroke="rgba(44, 89, 84, 1)" stroke-width="2"></path>
        <path d="M0 232.27C52.43 224.14 73.27 238.78 140 258.28C154.94 262.65 159.11 265.16 163.33 280C182.12 346.02 193.82 355.41 186.03 420C182.16 452.08 161.14 473.33 140 473.33C120.98 473.33 125.83 444.39 105.71 420C55.83 359.52 45.96 364.46 0 303.6C-6.9 294.46 0 291.8 0 280C0 256.13 -17.57 235 0 232.27" stroke="rgba(44, 89, 84, 1)" stroke-width="2"></path>
        <path d="M763.64 280C763.64 229.44 792.77 172.41 840 170.43C900.95 167.87 902.76 243.26 980 270.91C1042.76 293.38 1051.96 266.49 1120 270.67C1126 271.04 1128.08 275.12 1128.08 280C1128.08 285.62 1126.77 290.34 1120 291.67C1052.73 304.92 1048.84 294.83 980 309.17C908.84 323.99 903.25 358.53 840 350C795.07 343.94 763.64 319.22 763.64 280" stroke="rgba(44, 89, 84, 1)" stroke-width="2"></path>
        <path d="M234.14 560C234.14 548.89 252.3 523.23 280 520.88C345.23 515.35 351.99 527.8 420 544.25C432.85 547.36 441.72 555.65 441.72 560C441.72 563.52 430.86 560 420 560C350 560 350 560 280 560C257.07 560 234.14 568.45 234.14 560" stroke="rgba(44, 89, 84, 1)" stroke-width="2"></path>
        <path d="M823.85 560C823.85 547.67 823.23 527.05 840 525C901.3 517.51 916.13 525.58 980 540.91C989.05 543.08 985.83 552.61 985.83 560C985.83 562.16 982.91 560 980 560C910 560 910 560 840 560C831.92 560 823.85 565.17 823.85 560" stroke="rgba(44, 89, 84, 1)" stroke-width="2"></path>
        <path d="M1336.86 560C1336.86 535.11 1366.74 479.5 1400 479.5C1435.75 479.5 1474.88 536.06 1474.88 560C1474.88 576.31 1437.44 560 1400 560C1368.43 560 1336.86 575.36 1336.86 560" stroke="rgba(44, 89, 84, 1)" stroke-width="2"></path>
    </g>
    <defs>
        <mask id="SvgjsMask1011">
            <rect width="1440" height="560" fill="#ffffff"></rect>
        </mask>
    </defs>
</svg>