<?xml version="1.0" encoding="utf-8"?>
<!-- Generator: Adobe Illustrator 26.0.1, SVG Export Plug-In . SVG Version: 6.00 Build 0)  -->
<svg version="1.1" xmlns="http://www.w3.org/2000/svg" xmlns:xlink="http://www.w3.org/1999/xlink" x="0px" y="0px"
	 viewBox="0 0 288 144" style="enable-background:new 0 0 288 144;" xml:space="preserve">
<style type="text/css">
	.st0{opacity:0.19;fill:#F2F2F2;}
	.st1{fill:#FFFFFF;}
	.st2{fill-rule:evenodd;clip-rule:evenodd;fill:#FFFFFF;}
	.st3{display:none;}
	.st4{display:inline;fill:#FFFFFF;}
	.st5{fill:#FFFFFF;stroke:#FFFFFF;stroke-width:2;stroke-linecap:round;stroke-miterlimit:10;}
	.st6{fill-rule:evenodd;clip-rule:evenodd;}
	.st7{display:inline;}
	.st8{fill:none;stroke:#000000;stroke-width:2;stroke-linecap:round;stroke-miterlimit:10;}
	.st9{fill:none;stroke:#000000;stroke-width:1.6416;stroke-miterlimit:10;}
	.st10{display:inline;fill:none;stroke:#000000;stroke-width:1.6416;stroke-miterlimit:10;}
	.st11{display:none;fill:#B0BCA6;}
	.st12{fill:#B0BCA6;}
	.st13{fill:#2C5954;}
	.st14{fill:#2C5954;stroke:#075654;stroke-width:0.5;stroke-miterlimit:10;}
	.st15{fill:#0B3335;}
	.st16{fill-rule:evenodd;clip-rule:evenodd;fill:url(#SVGID_1_);}
	.st17{fill-rule:evenodd;clip-rule:evenodd;fill:url(#SVGID_00000083051509312609530370000005063047800584745911_);}
	.st18{display:inline;fill:#075654;}
	.st19{fill:none;stroke:#075654;stroke-width:2;stroke-linecap:round;stroke-miterlimit:10;}
	.st20{fill-rule:evenodd;clip-rule:evenodd;fill:url(#SVGID_00000130625168431448373420000012447582560984370063_);}
	.st21{fill-rule:evenodd;clip-rule:evenodd;fill:url(#SVGID_00000121961194131355144190000000969163028342418859_);}
	.st22{fill-rule:evenodd;clip-rule:evenodd;fill:url(#SVGID_00000123410285239963279870000009384214165816762777_);}
	.st23{fill-rule:evenodd;clip-rule:evenodd;fill:url(#SVGID_00000140729240384937822150000002421587764871850941_);}
	.st24{fill:#1A656A;}
</style>
<g id="Layer_2">
</g>
<g id="Layer_1">
	<rect class="st11" width="288" height="144"/>
	<g>
		<g>
			<g>
				<path class="st15" d="M76.05,100.69v1.36c-2.48-3.32-9.53-10.03-27.5-13.32V60.67c2,0.37,3.92,0.8,5.74,1.27v24.15l0.47,0.11
					c9.31,2.18,14.62,6.03,17.42,8.88c0.6,0.61,1.11,1.19,1.55,1.74c0.06,0.08,0.12,0.16,0.18,0.23c0.1,0.13,0.19,0.25,0.28,0.37
					c0.04,0.06,0.09,0.12,0.13,0.18c0.27,0.38,0.5,0.73,0.7,1.06c0.09,0.14,0.17,0.28,0.24,0.41c0.38,0.66,0.6,1.16,0.72,1.44
					c0.01,0.03,0.02,0.06,0.03,0.09C76.03,100.64,76.04,100.67,76.05,100.69z"/>
			</g>
			<g>
				<path class="st15" d="M78.96,100.69v1.36c2.48-3.32,9.53-10.03,27.5-13.32V60.67c-2,0.37-3.92,0.8-5.74,1.27v24.15l-0.47,0.11
					c-9.31,2.18-14.62,6.03-17.42,8.88c-0.6,0.61-1.11,1.19-1.55,1.74c-0.06,0.08-0.12,0.16-0.18,0.23
					c-0.1,0.13-0.19,0.25-0.28,0.37c-0.04,0.06-0.09,0.12-0.13,0.18c-0.27,0.38-0.5,0.73-0.7,1.06c-0.09,0.14-0.17,0.28-0.24,0.41
					c-0.38,0.66-0.6,1.16-0.72,1.44c-0.01,0.03-0.02,0.06-0.03,0.09C78.98,100.64,78.97,100.67,78.96,100.69z"/>
			</g>
			<g>
				<path class="st15" d="M76.05,104.36v1.05c-2.74-3.2-11.09-10.22-33.45-13.6V63.75c1.62,0.25,3.2,0.52,4.72,0.81v25.19l0.51,0.09
					c12.35,2.19,19.39,6.06,23.12,8.92C74.52,101.5,75.81,103.86,76.05,104.36z"/>
			</g>
			<g>
				<path class="st15" d="M78.96,104.36v1.05c2.74-3.2,11.09-10.22,33.45-13.6V63.75c-1.62,0.25-3.2,0.52-4.72,0.81v25.19
					l-0.51,0.09c-12.36,2.19-19.39,6.06-23.12,8.92C80.49,101.5,79.21,103.86,78.96,104.36z"/>
			</g>
			<g>
				<linearGradient id="SVGID_1_" gradientUnits="userSpaceOnUse" x1="76.916" y1="26.7181" x2="77.8803" y2="56.611">
					<stop  offset="0.4999" style="stop-color:#2C5954"/>
					<stop  offset="1" style="stop-color:#6F8C60"/>
				</linearGradient>
				<path class="st16" d="M93.74,44.95c-2.82,2.12-6.84,9.62-9.07,15.78c-0.62,1.71-1.09,3.3-1.37,4.66
					c-0.2,0.95-0.3,1.78-0.29,2.44c0.08,3.24,0.76,7.3,1.4,10.49l-4.35,4.74l-1.49,1.62l-1.07,1.16l-1.06-1.16l-5.84-6.36
					c0.63-3.19,1.31-7.25,1.39-10.49c0.02-0.67-0.08-1.5-0.28-2.44c-1.3-6.29-6.85-17.74-10.45-20.44
					c4.68,1.3,10.11,11.51,15.56,13.6c0.23,0.08,0.45,0.16,0.68,0.21c1.71-0.43,3.42-1.73,5.11-3.37
					C86.52,51.57,90.33,45.89,93.74,44.95z"/>
				
					<linearGradient id="SVGID_00000007397803813555419400000006810354254583584390_" gradientUnits="userSpaceOnUse" x1="76.6792" y1="26.7258" x2="77.6435" y2="56.6186">
					<stop  offset="0.4999" style="stop-color:#2C5954"/>
					<stop  offset="1" style="stop-color:#6F8C60"/>
				</linearGradient>
				<path style="fill-rule:evenodd;clip-rule:evenodd;fill:url(#SVGID_00000007397803813555419400000006810354254583584390_);" d="
					M81.93,51.64c0,2.45-1.98,4.43-4.43,4.43c-2.45,0-4.43-1.98-4.43-4.43c0-2.01,1.33-3.7,3.16-4.24
					c-0.22-0.39-0.52-0.75-0.88-1.15c-0.5-0.54-1.13-1.15-1.9-1.98c-0.26-0.29-0.54-0.6-0.84-0.95c-2.16-2.52-2.04-5.34-1.88-6.48
					v-0.01c0.03-0.16,0.06-0.32,0.1-0.5c0-0.01,0-0.02,0-0.02c0.34-1.61,1.16-3.92,3.15-6.3c1.07-1.29,2.48-2.6,4.33-3.84
					c0,0-0.01,0.05-0.02,0.14c-0.04,0.28-0.19,0.74-0.17,1.44c0.03,0.88,0.33,2.13,1.48,3.82c0.02,0.03,0.05,0.08,0.08,0.12
					c1.45,2.08,0.99,4.26,0.94,4.49c1.2-1.57,0.4-3.27,0.36-3.43c0.01,0,0.01,0,0.01,0.01c4.22,3.37,2.11,8.31-0.18,12.23
					c-0.64,1.1-1.09,1.97-1.42,2.65C80.89,48.34,81.93,49.87,81.93,51.64z"/>
			</g>
			<g>
				<path class="st15" d="M55.59,113.53c-0.33-0.12-0.55-0.25-0.66-0.4s-0.15-0.31-0.12-0.48c0.03-0.17,0.07-0.34,0.13-0.53
					l2.05-5.84c0.06-0.17,0.13-0.32,0.21-0.47c0.08-0.14,0.22-0.24,0.4-0.29c0.18-0.05,0.44-0.02,0.79,0.1
					c0.23,0.08,0.4,0.16,0.5,0.23s0.17,0.13,0.2,0.2c0.03,0.06,0.07,0.13,0.1,0.21l1.29,3.83l-0.07-0.02l3.38-2.18
					c0.1-0.06,0.2-0.1,0.28-0.12c0.08-0.02,0.18-0.03,0.3-0.01c0.12,0.02,0.28,0.06,0.48,0.13c0.34,0.12,0.56,0.25,0.67,0.41
					s0.15,0.31,0.12,0.48c-0.03,0.17-0.07,0.34-0.13,0.51l-2.05,5.84c-0.06,0.17-0.13,0.32-0.22,0.47s-0.22,0.25-0.39,0.29
					s-0.44,0.01-0.79-0.11c-0.34-0.12-0.56-0.25-0.67-0.41c-0.11-0.15-0.15-0.31-0.12-0.49c0.03-0.17,0.07-0.34,0.13-0.51l1.13-3.22
					l-1.96,1.34c-0.04,0.03-0.11,0.07-0.2,0.12c-0.09,0.05-0.2,0.09-0.33,0.11c-0.13,0.02-0.3,0-0.51-0.08
					c-0.2-0.07-0.35-0.16-0.45-0.26c-0.1-0.1-0.16-0.2-0.2-0.29c-0.04-0.09-0.06-0.17-0.07-0.22l-0.69-2.25l-1.13,3.23
					c-0.06,0.17-0.13,0.32-0.22,0.47c-0.09,0.15-0.22,0.25-0.4,0.29S55.94,113.65,55.59,113.53z"/>
				<path class="st15" d="M66.12,116.68c-0.35-0.07-0.59-0.18-0.72-0.31c-0.13-0.14-0.19-0.29-0.19-0.47c0-0.17,0.02-0.35,0.06-0.52
					l1.24-6.08c0.04-0.17,0.08-0.34,0.15-0.5s0.18-0.27,0.35-0.35c0.17-0.08,0.44-0.08,0.8,0s0.6,0.18,0.73,0.31
					c0.12,0.14,0.18,0.29,0.18,0.46c0,0.17-0.02,0.35-0.06,0.53l-1.24,6.08c-0.04,0.17-0.08,0.34-0.15,0.5
					c-0.06,0.16-0.18,0.28-0.35,0.35C66.75,116.76,66.48,116.76,66.12,116.68z"/>
				<path class="st15" d="M73.19,117.79c-0.31-0.03-0.65-0.11-1.03-0.24s-0.74-0.32-1.11-0.57s-0.7-0.56-0.99-0.93
					c-0.29-0.37-0.52-0.8-0.67-1.3c-0.15-0.5-0.2-1.06-0.15-1.69c0.05-0.61,0.2-1.13,0.43-1.58c0.24-0.45,0.53-0.82,0.88-1.13
					c0.35-0.31,0.72-0.55,1.13-0.72c0.4-0.17,0.81-0.29,1.21-0.36c0.4-0.07,0.76-0.08,1.09-0.06c0.41,0.04,0.76,0.12,1.06,0.24
					c0.3,0.13,0.55,0.25,0.73,0.38c0.19,0.12,0.3,0.21,0.35,0.24c0.15,0.12,0.29,0.24,0.42,0.38s0.18,0.31,0.17,0.51
					c-0.01,0.1-0.04,0.21-0.09,0.32c-0.05,0.11-0.13,0.22-0.23,0.33c-0.18,0.21-0.34,0.36-0.49,0.45s-0.29,0.13-0.43,0.12
					c-0.1-0.01-0.2-0.04-0.29-0.1s-0.2-0.13-0.33-0.23c-0.05-0.04-0.12-0.1-0.2-0.16s-0.2-0.12-0.35-0.17
					c-0.15-0.06-0.35-0.1-0.59-0.12c-0.21-0.02-0.44,0-0.68,0.05c-0.25,0.06-0.49,0.15-0.72,0.3c-0.23,0.14-0.42,0.34-0.58,0.6
					c-0.16,0.26-0.25,0.57-0.29,0.94c-0.03,0.38,0.01,0.71,0.12,0.99c0.12,0.28,0.28,0.5,0.48,0.69c0.2,0.18,0.42,0.32,0.66,0.42
					s0.45,0.15,0.65,0.17c0.21,0.02,0.38,0.01,0.53-0.01c0.15-0.02,0.28-0.06,0.4-0.12c0.12-0.05,0.23-0.11,0.33-0.16
					c0.09-0.06,0.19-0.1,0.3-0.14s0.21-0.05,0.32-0.04c0.13,0.01,0.27,0.08,0.39,0.2c0.13,0.12,0.25,0.31,0.39,0.55
					c0.08,0.14,0.13,0.27,0.17,0.39c0.03,0.12,0.05,0.23,0.04,0.32c-0.02,0.2-0.1,0.35-0.25,0.46c-0.15,0.11-0.31,0.2-0.48,0.28
					c-0.06,0.03-0.18,0.09-0.38,0.18c-0.19,0.1-0.45,0.18-0.77,0.25C74,117.81,73.63,117.83,73.19,117.79z"/>
				<path class="st15" d="M79.18,117.82c-0.36,0.03-0.62-0.01-0.78-0.11c-0.16-0.1-0.26-0.23-0.3-0.4
					c-0.04-0.17-0.07-0.34-0.08-0.52l-0.43-6.19c-0.03-0.42,0.03-0.71,0.19-0.87c0.15-0.17,0.44-0.27,0.86-0.29l4.38-0.3
					c0.18-0.01,0.36-0.01,0.52,0.01c0.17,0.02,0.31,0.1,0.43,0.25c0.12,0.14,0.19,0.4,0.21,0.77c0.02,0.36-0.01,0.62-0.11,0.78
					c-0.1,0.16-0.23,0.26-0.39,0.3c-0.17,0.04-0.34,0.07-0.52,0.08l-3.3,0.23l0.07,1.07l2.21-0.15c0.18-0.01,0.35-0.01,0.49,0.01
					c0.15,0.02,0.27,0.09,0.36,0.21c0.1,0.12,0.16,0.34,0.18,0.66c0.02,0.3-0.01,0.52-0.09,0.66c-0.08,0.14-0.19,0.22-0.34,0.26
					c-0.15,0.03-0.32,0.06-0.5,0.07l-2.19,0.15l0.07,1.06l3.32-0.23c0.18-0.01,0.36-0.01,0.52,0.01s0.31,0.1,0.43,0.25
					c0.12,0.14,0.19,0.4,0.21,0.77c0.02,0.36-0.01,0.62-0.11,0.78c-0.1,0.16-0.23,0.26-0.39,0.3s-0.34,0.07-0.52,0.08L79.18,117.82z
					"/>
				<path class="st15" d="M90.57,116.25c-0.26,0.06-0.49,0.06-0.69,0.01c-0.2-0.05-0.37-0.17-0.5-0.34l-4.22-5.42
					c-0.23-0.31-0.33-0.57-0.3-0.79c0.03-0.22,0.2-0.45,0.52-0.71c0.21-0.2,0.41-0.32,0.58-0.37c0.17-0.05,0.34-0.03,0.49,0.06
					c0.15,0.09,0.3,0.24,0.46,0.46l2.93,4.1l0.76-4.98c0.04-0.26,0.11-0.47,0.21-0.62s0.24-0.24,0.42-0.27s0.4-0.01,0.67,0.06
					c0.43,0.09,0.7,0.23,0.81,0.4c0.11,0.18,0.12,0.45,0.05,0.83l-1.32,6.74c-0.04,0.19-0.13,0.36-0.29,0.51
					C90.98,116.09,90.79,116.2,90.57,116.25z"/>
				<path class="st15" d="M102.19,111.03c0.21,0.17,0.35,0.33,0.42,0.48c0.07,0.15,0.09,0.31,0.04,0.47
					c-0.05,0.16-0.17,0.35-0.34,0.57c-0.28,0.32-0.52,0.5-0.74,0.52c-0.22,0.02-0.49-0.11-0.82-0.39l-3.55-3l-0.16,4.65
					c-0.03,0.42-0.12,0.71-0.28,0.85c-0.16,0.15-0.45,0.21-0.87,0.19c-0.28-0.01-0.49-0.05-0.65-0.12
					c-0.16-0.07-0.27-0.18-0.33-0.34s-0.08-0.37-0.07-0.64l0.24-6.92c0.01-0.21,0.08-0.41,0.2-0.59c0.13-0.18,0.28-0.31,0.46-0.39
					c0.13-0.06,0.26-0.09,0.4-0.09c0.13,0,0.27,0.02,0.4,0.07c0.13,0.05,0.26,0.12,0.37,0.22L102.19,111.03z M96.69,113.22
					l0.08-2.08l1.81-0.8l1.59,1.35L96.69,113.22z"/>
			</g>
			<g class="st3">
				<path class="st18" d="M47.87,105.19c0,0.74-0.6,1.35-1.35,1.35c-0.74,0-1.35-0.6-1.35-1.35c0-0.74,0.6-1.35,1.35-1.35
					C47.26,103.84,47.87,104.44,47.87,105.19z"/>
				<path class="st18" d="M112,104.19c0,0.74-0.6,1.35-1.35,1.35c-0.74,0-1.35-0.6-1.35-1.35c0-0.74,0.6-1.35,1.35-1.35
					C111.4,102.84,112,103.44,112,104.19z"/>
			</g>
		</g>
	</g>
	<g>
		<g>
			<path class="st13" d="M145.44,62.19v9.09h-1.19V64.5l-3.02,6.78h-0.84l-3.03-6.79v6.79h-1.19v-9.09h1.29l3.36,7.51l3.36-7.51
				H145.44z"/>
			<path class="st13" d="M147.5,62.67c-0.16-0.16-0.24-0.35-0.24-0.58s0.08-0.42,0.24-0.58c0.16-0.16,0.35-0.24,0.58-0.24
				c0.22,0,0.4,0.08,0.56,0.24c0.15,0.16,0.23,0.35,0.23,0.58s-0.08,0.42-0.23,0.58c-0.15,0.16-0.34,0.24-0.56,0.24
				C147.85,62.91,147.66,62.83,147.5,62.67z M148.66,64.08v7.2h-1.19v-7.2H148.66z"/>
			<path class="st13" d="M151.76,71.11c-0.44-0.19-0.78-0.45-1.04-0.79c-0.25-0.34-0.39-0.72-0.42-1.16h1.23
				c0.03,0.36,0.2,0.65,0.51,0.88c0.3,0.23,0.7,0.34,1.19,0.34c0.46,0,0.81-0.1,1.08-0.3s0.39-0.46,0.39-0.76
				c0-0.31-0.14-0.55-0.42-0.7c-0.28-0.15-0.71-0.3-1.3-0.45c-0.53-0.14-0.97-0.28-1.31-0.43s-0.63-0.36-0.87-0.64
				c-0.24-0.28-0.36-0.66-0.36-1.12c0-0.37,0.11-0.7,0.33-1.01c0.22-0.31,0.53-0.55,0.93-0.73s0.86-0.27,1.38-0.27
				c0.8,0,1.44,0.2,1.93,0.6c0.49,0.4,0.75,0.95,0.79,1.65h-1.19c-0.03-0.38-0.18-0.68-0.45-0.91c-0.28-0.23-0.65-0.34-1.11-0.34
				c-0.43,0-0.77,0.09-1.02,0.28c-0.25,0.18-0.38,0.42-0.38,0.72c0,0.24,0.08,0.43,0.23,0.58c0.15,0.15,0.35,0.28,0.58,0.37
				c0.23,0.09,0.55,0.19,0.96,0.31c0.52,0.14,0.94,0.28,1.26,0.41c0.32,0.14,0.6,0.34,0.83,0.61c0.23,0.27,0.35,0.63,0.36,1.06
				c0,0.39-0.11,0.75-0.33,1.06c-0.22,0.32-0.53,0.56-0.93,0.74c-0.4,0.18-0.86,0.27-1.37,0.27
				C152.69,71.39,152.19,71.3,151.76,71.11z"/>
			<path class="st13" d="M158.61,71.11c-0.44-0.19-0.78-0.45-1.04-0.79c-0.25-0.34-0.39-0.72-0.42-1.16h1.23
				c0.03,0.36,0.2,0.65,0.51,0.88c0.3,0.23,0.7,0.34,1.19,0.34c0.46,0,0.81-0.1,1.08-0.3s0.39-0.46,0.39-0.76
				c0-0.31-0.14-0.55-0.42-0.7c-0.28-0.15-0.71-0.3-1.3-0.45c-0.53-0.14-0.97-0.28-1.31-0.43s-0.63-0.36-0.87-0.64
				c-0.24-0.28-0.36-0.66-0.36-1.12c0-0.37,0.11-0.7,0.33-1.01c0.22-0.31,0.53-0.55,0.93-0.73s0.86-0.27,1.38-0.27
				c0.8,0,1.44,0.2,1.93,0.6c0.49,0.4,0.75,0.95,0.79,1.65h-1.19c-0.03-0.38-0.18-0.68-0.45-0.91c-0.28-0.23-0.65-0.34-1.11-0.34
				c-0.43,0-0.77,0.09-1.02,0.28c-0.25,0.18-0.38,0.42-0.38,0.72c0,0.24,0.08,0.43,0.23,0.58c0.15,0.15,0.35,0.28,0.58,0.37
				c0.23,0.09,0.55,0.19,0.96,0.31c0.52,0.14,0.94,0.28,1.26,0.41c0.32,0.14,0.6,0.34,0.83,0.61c0.23,0.27,0.35,0.63,0.36,1.06
				c0,0.39-0.11,0.75-0.33,1.06c-0.22,0.32-0.53,0.56-0.93,0.74c-0.4,0.18-0.86,0.27-1.37,0.27
				C159.54,71.39,159.05,71.3,158.61,71.11z"/>
			<path class="st13" d="M164.44,62.67c-0.16-0.16-0.24-0.35-0.24-0.58s0.08-0.42,0.24-0.58c0.16-0.16,0.35-0.24,0.58-0.24
				c0.22,0,0.4,0.08,0.56,0.24c0.15,0.16,0.23,0.35,0.23,0.58s-0.08,0.42-0.23,0.58c-0.15,0.16-0.34,0.24-0.56,0.24
				C164.79,62.91,164.6,62.83,164.44,62.67z M165.59,64.08v7.2h-1.19v-7.2H165.59z"/>
			<path class="st13" d="M168.94,70.93c-0.55-0.31-0.98-0.74-1.29-1.31c-0.31-0.56-0.47-1.22-0.47-1.96c0-0.74,0.16-1.39,0.48-1.95
				c0.32-0.56,0.75-1,1.31-1.3c0.55-0.3,1.17-0.45,1.85-0.45c0.68,0,1.3,0.15,1.85,0.45c0.55,0.3,0.99,0.73,1.31,1.29
				c0.32,0.56,0.48,1.21,0.48,1.96s-0.16,1.4-0.49,1.96c-0.33,0.56-0.77,1-1.33,1.31s-1.18,0.46-1.86,0.46
				C170.09,71.39,169.48,71.24,168.94,70.93z M171.98,70.04c0.38-0.2,0.68-0.5,0.91-0.91c0.23-0.4,0.35-0.89,0.35-1.47
				s-0.11-1.07-0.34-1.47c-0.23-0.4-0.53-0.7-0.89-0.9c-0.37-0.2-0.77-0.3-1.19-0.3c-0.44,0-0.84,0.1-1.2,0.3s-0.65,0.5-0.87,0.9
				c-0.22,0.4-0.33,0.89-0.33,1.47c0,0.59,0.11,1.08,0.32,1.48c0.21,0.4,0.5,0.7,0.86,0.9c0.36,0.2,0.75,0.3,1.18,0.3
				C171.2,70.34,171.6,70.24,171.98,70.04z"/>
			<path class="st13" d="M181.67,64.74c0.54,0.53,0.81,1.29,0.81,2.29v4.24h-1.18V67.2c0-0.72-0.18-1.27-0.54-1.65
				c-0.36-0.38-0.85-0.57-1.47-0.57c-0.63,0-1.13,0.2-1.5,0.59c-0.37,0.39-0.56,0.97-0.56,1.72v3.98h-1.19v-7.2h1.19v1.02
				c0.24-0.37,0.56-0.65,0.96-0.85c0.41-0.2,0.86-0.3,1.35-0.3C180.41,63.95,181.12,64.21,181.67,64.74z"/>
			<path class="st13" d="M188.1,64.28c0.4-0.71,0.95-1.27,1.65-1.67c0.7-0.4,1.47-0.6,2.32-0.6c1,0,1.87,0.24,2.61,0.72
				c0.74,0.48,1.29,1.16,1.63,2.05h-1.43c-0.25-0.55-0.62-0.98-1.1-1.27c-0.48-0.3-1.05-0.45-1.71-0.45c-0.64,0-1.21,0.15-1.72,0.45
				c-0.51,0.3-0.91,0.72-1.19,1.27c-0.29,0.55-0.43,1.19-0.43,1.92c0,0.73,0.14,1.36,0.43,1.91c0.29,0.55,0.69,0.97,1.19,1.27
				c0.51,0.3,1.08,0.45,1.72,0.45c0.67,0,1.24-0.15,1.71-0.44c0.48-0.29,0.84-0.72,1.1-1.27h1.43c-0.34,0.88-0.88,1.55-1.63,2.03
				c-0.74,0.48-1.62,0.72-2.61,0.72c-0.85,0-1.62-0.2-2.32-0.6s-1.25-0.95-1.65-1.66c-0.4-0.71-0.6-1.51-0.6-2.4
				S187.7,64.99,188.1,64.28z"/>
			<path class="st13" d="M203.12,64.29c0.44,0.23,0.78,0.58,1.03,1.04c0.25,0.46,0.37,1.03,0.37,1.69v4.24h-1.18V67.2
				c0-0.72-0.18-1.27-0.54-1.65c-0.36-0.38-0.85-0.57-1.47-0.57c-0.63,0-1.13,0.2-1.5,0.59c-0.37,0.39-0.56,0.97-0.56,1.72v3.98
				h-1.19v-9.72h1.19v3.55c0.24-0.37,0.56-0.65,0.98-0.85c0.42-0.2,0.88-0.3,1.4-0.3C202.19,63.95,202.68,64.06,203.12,64.29z"/>
			<path class="st13" d="M206.48,65.71c0.3-0.56,0.71-0.99,1.23-1.29c0.52-0.31,1.1-0.46,1.74-0.46c0.63,0,1.18,0.14,1.64,0.41
				c0.46,0.27,0.81,0.61,1.04,1.02v-1.31h1.21v7.2h-1.21v-1.34c-0.24,0.42-0.59,0.77-1.06,1.04s-1.01,0.41-1.63,0.41
				c-0.64,0-1.22-0.16-1.73-0.47c-0.52-0.31-0.92-0.76-1.22-1.33c-0.3-0.57-0.45-1.22-0.45-1.94
				C206.04,66.91,206.19,66.27,206.48,65.71z M211.8,66.24c-0.22-0.4-0.51-0.71-0.89-0.93S210.13,65,209.69,65s-0.85,0.1-1.22,0.31
				c-0.37,0.21-0.66,0.52-0.88,0.92c-0.22,0.4-0.33,0.88-0.33,1.42c0,0.55,0.11,1.03,0.33,1.44c0.22,0.41,0.51,0.72,0.88,0.93
				s0.77,0.32,1.22,0.32s0.86-0.11,1.23-0.32s0.67-0.53,0.89-0.93c0.22-0.41,0.33-0.88,0.33-1.42
				C212.13,67.12,212.02,66.65,211.8,66.24z"/>
			<path class="st13" d="M217.61,64.37c0.47-0.28,1.01-0.41,1.63-0.41c0.64,0,1.22,0.15,1.74,0.46c0.52,0.31,0.93,0.74,1.23,1.29
				c0.3,0.56,0.45,1.2,0.45,1.94c0,0.73-0.15,1.37-0.45,1.94c-0.3,0.57-0.71,1.01-1.23,1.33c-0.52,0.31-1.1,0.47-1.74,0.47
				c-0.61,0-1.15-0.14-1.62-0.41s-0.83-0.62-1.07-1.03v4.74h-1.19V64.08h1.19v1.33C216.79,64.99,217.14,64.65,217.61,64.37z
				 M221.11,66.23c-0.22-0.4-0.51-0.71-0.89-0.92C219.85,65.1,219.44,65,219,65c-0.44,0-0.84,0.11-1.21,0.32s-0.67,0.52-0.89,0.93
				c-0.22,0.41-0.33,0.88-0.33,1.41c0,0.54,0.11,1.02,0.33,1.42c0.22,0.41,0.52,0.72,0.89,0.93s0.78,0.32,1.21,0.32
				c0.45,0,0.86-0.11,1.23-0.32s0.67-0.53,0.89-0.93c0.22-0.41,0.33-0.89,0.33-1.44C221.44,67.11,221.33,66.63,221.11,66.23z"/>
			<path class="st13" d="M230.76,68.12h-5.75c0.04,0.71,0.29,1.26,0.73,1.66c0.44,0.4,0.98,0.6,1.61,0.6c0.52,0,0.95-0.12,1.29-0.36
				c0.35-0.24,0.59-0.56,0.73-0.97h1.29c-0.19,0.69-0.58,1.25-1.16,1.69c-0.58,0.43-1.3,0.65-2.15,0.65c-0.68,0-1.29-0.15-1.83-0.46
				c-0.54-0.31-0.96-0.74-1.27-1.31c-0.31-0.56-0.46-1.22-0.46-1.96s0.15-1.4,0.45-1.96c0.3-0.56,0.72-0.99,1.25-1.29
				c0.54-0.3,1.16-0.45,1.86-0.45c0.68,0,1.29,0.15,1.81,0.45s0.93,0.71,1.21,1.23c0.28,0.52,0.43,1.11,0.43,1.77
				C230.8,67.63,230.79,67.87,230.76,68.12z M229.26,65.97c-0.2-0.33-0.48-0.58-0.82-0.75c-0.35-0.17-0.73-0.26-1.15-0.26
				c-0.6,0-1.12,0.19-1.54,0.58c-0.42,0.39-0.67,0.92-0.73,1.6h4.54C229.57,66.69,229.47,66.3,229.26,65.97z"/>
			<path class="st13" d="M233.57,61.56v9.72h-1.19v-9.72H233.57z"/>
			<path class="st13" d="M236.8,61.56v9.72h-1.19v-9.72H236.8z"/>
			<path class="st13" d="M245.36,68.12h-5.75c0.04,0.71,0.29,1.26,0.73,1.66c0.44,0.4,0.98,0.6,1.61,0.6c0.52,0,0.95-0.12,1.29-0.36
				c0.35-0.24,0.59-0.56,0.73-0.97h1.29c-0.19,0.69-0.58,1.25-1.16,1.69c-0.58,0.43-1.3,0.65-2.15,0.65c-0.68,0-1.29-0.15-1.83-0.46
				c-0.54-0.31-0.96-0.74-1.27-1.31c-0.31-0.56-0.46-1.22-0.46-1.96s0.15-1.4,0.45-1.96c0.3-0.56,0.72-0.99,1.25-1.29
				c0.54-0.3,1.16-0.45,1.86-0.45c0.68,0,1.29,0.15,1.81,0.45s0.93,0.71,1.21,1.23c0.28,0.52,0.43,1.11,0.43,1.77
				C245.4,67.63,245.39,67.87,245.36,68.12z M243.86,65.97c-0.2-0.33-0.48-0.58-0.82-0.75c-0.35-0.17-0.73-0.26-1.15-0.26
				c-0.6,0-1.12,0.19-1.54,0.58c-0.42,0.39-0.67,0.92-0.73,1.6h4.54C244.17,66.69,244.07,66.3,243.86,65.97z"/>
			<path class="st13" d="M137.35,78.85v3.06h3.33v0.98h-3.33v3.15h3.73v0.98h-4.92v-9.17h4.92v0.98H137.35z M139.77,75.9l-2.8,1.5
				V76.5l2.8-1.64V75.9z"/>
			<path class="st13" d="M145.57,85.93l2.23-6.09h1.27l-2.82,7.2h-1.39l-2.82-7.2h1.29L145.57,85.93z"/>
			<path class="st13" d="M150.26,81.47c0.3-0.56,0.71-0.99,1.23-1.29c0.52-0.31,1.1-0.46,1.74-0.46c0.63,0,1.18,0.14,1.64,0.41
				c0.46,0.27,0.81,0.61,1.04,1.02v-1.31h1.21v7.2h-1.21v-1.34c-0.24,0.42-0.59,0.77-1.06,1.04s-1.01,0.41-1.63,0.41
				c-0.64,0-1.22-0.16-1.73-0.47c-0.52-0.31-0.92-0.76-1.22-1.33c-0.3-0.57-0.45-1.22-0.45-1.94
				C149.81,82.67,149.96,82.03,150.26,81.47z M155.58,82c-0.22-0.4-0.51-0.71-0.89-0.93s-0.78-0.32-1.23-0.32s-0.85,0.1-1.22,0.31
				c-0.37,0.21-0.66,0.52-0.88,0.92c-0.22,0.4-0.33,0.88-0.33,1.42c0,0.55,0.11,1.03,0.33,1.44c0.22,0.41,0.51,0.72,0.88,0.93
				s0.77,0.32,1.22,0.32s0.86-0.11,1.23-0.32s0.67-0.53,0.89-0.93c0.22-0.41,0.33-0.88,0.33-1.42C155.9,82.88,155.8,82.4,155.58,82z
				"/>
			<path class="st13" d="M164.77,80.5c0.54,0.53,0.81,1.29,0.81,2.29v4.24h-1.18v-4.07c0-0.72-0.18-1.27-0.54-1.65
				c-0.36-0.38-0.85-0.57-1.47-0.57c-0.63,0-1.13,0.2-1.5,0.59c-0.37,0.39-0.56,0.97-0.56,1.72v3.98h-1.19v-7.2h1.19v1.02
				c0.24-0.37,0.56-0.65,0.96-0.85c0.41-0.2,0.86-0.3,1.35-0.3C163.52,79.7,164.22,79.97,164.77,80.5z"/>
			<path class="st13" d="M172.14,80.12c0.47,0.27,0.82,0.61,1.04,1.02v-1.31h1.21v7.35c0,0.66-0.14,1.24-0.42,1.75
				c-0.28,0.51-0.68,0.91-1.2,1.2c-0.52,0.29-1.13,0.43-1.82,0.43c-0.95,0-1.73-0.22-2.36-0.67c-0.63-0.45-1-1.05-1.12-1.83h1.18
				c0.13,0.44,0.4,0.79,0.81,1.06c0.41,0.27,0.91,0.4,1.48,0.4c0.66,0,1.19-0.21,1.61-0.62c0.42-0.41,0.62-0.99,0.62-1.73v-1.51
				c-0.24,0.42-0.59,0.77-1.05,1.05c-0.46,0.28-1.01,0.42-1.63,0.42c-0.64,0-1.22-0.16-1.74-0.47c-0.52-0.31-0.93-0.76-1.23-1.33
				c-0.3-0.57-0.45-1.22-0.45-1.94c0-0.74,0.15-1.38,0.45-1.94c0.3-0.56,0.71-0.99,1.23-1.29c0.52-0.31,1.1-0.46,1.74-0.46
				C171.13,79.72,171.67,79.85,172.14,80.12z M172.86,82c-0.22-0.4-0.51-0.71-0.89-0.93s-0.78-0.32-1.23-0.32s-0.85,0.1-1.22,0.31
				c-0.37,0.21-0.66,0.52-0.88,0.92c-0.22,0.4-0.33,0.88-0.33,1.42c0,0.55,0.11,1.03,0.33,1.44c0.22,0.41,0.51,0.72,0.88,0.93
				s0.77,0.32,1.22,0.32s0.86-0.11,1.23-0.32s0.67-0.53,0.89-0.93c0.22-0.41,0.33-0.88,0.33-1.42
				C173.18,82.88,173.07,82.4,172.86,82z"/>
			<path class="st13" d="M182.94,83.88h-5.75c0.04,0.71,0.29,1.26,0.73,1.66c0.44,0.4,0.98,0.6,1.61,0.6c0.52,0,0.95-0.12,1.29-0.36
				c0.35-0.24,0.59-0.56,0.73-0.97h1.29c-0.19,0.69-0.58,1.25-1.16,1.69c-0.58,0.43-1.3,0.65-2.15,0.65c-0.68,0-1.29-0.15-1.83-0.46
				c-0.54-0.31-0.96-0.74-1.27-1.31c-0.31-0.56-0.46-1.22-0.46-1.96s0.15-1.4,0.45-1.96c0.3-0.56,0.72-0.99,1.25-1.29
				c0.54-0.3,1.16-0.45,1.86-0.45c0.68,0,1.29,0.15,1.81,0.45s0.93,0.71,1.21,1.23c0.28,0.52,0.43,1.11,0.43,1.77
				C182.98,83.38,182.97,83.62,182.94,83.88z M181.44,81.73c-0.2-0.33-0.48-0.58-0.82-0.75c-0.35-0.17-0.73-0.26-1.15-0.26
				c-0.6,0-1.12,0.19-1.54,0.58c-0.42,0.39-0.67,0.92-0.73,1.6h4.54C181.75,82.45,181.64,82.06,181.44,81.73z"/>
			<path class="st13" d="M185.75,77.31v9.72h-1.19v-9.72H185.75z"/>
			<path class="st13" d="M187.82,78.43c-0.16-0.16-0.24-0.35-0.24-0.58s0.08-0.42,0.24-0.58c0.16-0.16,0.35-0.24,0.58-0.24
				c0.22,0,0.4,0.08,0.56,0.24c0.15,0.16,0.23,0.35,0.23,0.58s-0.08,0.42-0.23,0.58c-0.15,0.16-0.34,0.24-0.56,0.24
				C188.17,78.67,187.98,78.59,187.82,78.43z M188.98,79.83v7.2h-1.19v-7.2H188.98z"/>
			<path class="st13" d="M191.02,81.47c0.3-0.56,0.71-0.99,1.23-1.29c0.52-0.31,1.1-0.46,1.75-0.46c0.62,0,1.17,0.14,1.63,0.41
				c0.47,0.28,0.81,0.61,1.03,1.02v-1.31h1.21v10.61h-1.21V85.7c-0.23,0.4-0.58,0.74-1.05,1.02c-0.47,0.28-1.02,0.42-1.65,0.42
				c-0.63,0-1.2-0.16-1.72-0.47c-0.52-0.31-0.92-0.76-1.22-1.33c-0.3-0.57-0.45-1.22-0.45-1.94
				C190.57,82.67,190.72,82.03,191.02,81.47z M196.33,82c-0.22-0.4-0.51-0.71-0.89-0.93s-0.78-0.32-1.23-0.32s-0.85,0.1-1.22,0.31
				c-0.37,0.21-0.66,0.52-0.88,0.92c-0.22,0.4-0.33,0.88-0.33,1.42c0,0.55,0.11,1.03,0.33,1.44c0.22,0.41,0.51,0.72,0.88,0.93
				s0.77,0.32,1.22,0.32s0.86-0.11,1.23-0.32s0.67-0.53,0.89-0.93c0.22-0.41,0.33-0.88,0.33-1.42
				C196.66,82.88,196.55,82.4,196.33,82z"/>
			<path class="st13" d="M206.27,79.83v7.2h-1.19v-1.06c-0.23,0.37-0.54,0.65-0.95,0.86s-0.86,0.31-1.35,0.31
				c-0.56,0-1.06-0.12-1.51-0.35c-0.45-0.23-0.8-0.58-1.06-1.04s-0.39-1.03-0.39-1.69v-4.21h1.18v4.06c0,0.71,0.18,1.25,0.54,1.63
				s0.85,0.57,1.47,0.57c0.64,0,1.14-0.2,1.51-0.59c0.37-0.39,0.55-0.97,0.55-1.72v-3.95H206.27z"/>
			<path class="st13" d="M214.82,83.88h-5.75c0.04,0.71,0.29,1.26,0.73,1.66c0.44,0.4,0.98,0.6,1.61,0.6c0.52,0,0.95-0.12,1.29-0.36
				c0.35-0.24,0.59-0.56,0.73-0.97h1.29c-0.19,0.69-0.58,1.25-1.16,1.69c-0.58,0.43-1.3,0.65-2.15,0.65c-0.68,0-1.29-0.15-1.83-0.46
				c-0.54-0.31-0.96-0.74-1.27-1.31c-0.31-0.56-0.46-1.22-0.46-1.96s0.15-1.4,0.45-1.96c0.3-0.56,0.72-0.99,1.25-1.29
				c0.54-0.3,1.16-0.45,1.86-0.45c0.68,0,1.29,0.15,1.81,0.45s0.93,0.71,1.21,1.23c0.28,0.52,0.43,1.11,0.43,1.77
				C214.86,83.38,214.85,83.62,214.82,83.88z M213.32,81.73c-0.2-0.33-0.48-0.58-0.82-0.75c-0.35-0.17-0.73-0.26-1.15-0.26
				c-0.6,0-1.12,0.19-1.54,0.58c-0.42,0.39-0.67,0.92-0.73,1.6h4.54C213.63,82.45,213.52,82.06,213.32,81.73z"/>
			<path class="st13" d="M143.72,93.63l-3.45,9.15h-1.38l-3.45-9.15h1.27l2.88,7.89l2.88-7.89H143.72z"/>
			<path class="st13" d="M145.07,94.19c-0.16-0.16-0.24-0.35-0.24-0.58s0.08-0.42,0.24-0.58c0.16-0.16,0.35-0.24,0.58-0.24
				c0.22,0,0.4,0.08,0.56,0.24c0.15,0.16,0.23,0.35,0.23,0.58s-0.08,0.42-0.23,0.58c-0.15,0.16-0.34,0.24-0.56,0.24
				C145.42,94.42,145.23,94.34,145.07,94.19z M146.23,95.59v7.2h-1.19v-7.2H146.23z"/>
			<path class="st13" d="M149.33,102.62c-0.44-0.19-0.78-0.45-1.04-0.79c-0.25-0.34-0.39-0.72-0.42-1.16h1.23
				c0.03,0.36,0.2,0.65,0.51,0.88c0.3,0.23,0.7,0.34,1.19,0.34c0.46,0,0.81-0.1,1.08-0.3s0.39-0.46,0.39-0.76
				c0-0.31-0.14-0.55-0.42-0.7c-0.28-0.15-0.71-0.3-1.3-0.45c-0.53-0.14-0.97-0.28-1.31-0.43s-0.63-0.36-0.87-0.64
				c-0.24-0.28-0.36-0.66-0.36-1.12c0-0.37,0.11-0.7,0.33-1.01c0.22-0.31,0.53-0.55,0.93-0.73s0.86-0.27,1.38-0.27
				c0.8,0,1.44,0.2,1.93,0.6c0.49,0.4,0.75,0.95,0.79,1.65h-1.19c-0.03-0.38-0.18-0.68-0.45-0.91c-0.28-0.23-0.65-0.34-1.11-0.34
				c-0.43,0-0.77,0.09-1.02,0.28c-0.25,0.18-0.38,0.42-0.38,0.72c0,0.24,0.08,0.43,0.23,0.58c0.15,0.15,0.35,0.28,0.58,0.37
				c0.23,0.09,0.55,0.19,0.96,0.31c0.52,0.14,0.94,0.28,1.26,0.41c0.32,0.14,0.6,0.34,0.83,0.61c0.23,0.27,0.35,0.63,0.36,1.06
				c0,0.39-0.11,0.75-0.33,1.06c-0.22,0.32-0.53,0.56-0.93,0.74c-0.4,0.18-0.86,0.27-1.37,0.27
				C150.26,102.9,149.76,102.81,149.33,102.62z"/>
			<path class="st13" d="M155.24,94.18c-0.16-0.16-0.24-0.35-0.24-0.58s0.08-0.42,0.24-0.58c0.16-0.16,0.35-0.24,0.58-0.24
				c0.22,0,0.4,0.08,0.56,0.24c0.15,0.16,0.23,0.35,0.23,0.58s-0.08,0.42-0.23,0.58c-0.15,0.16-0.34,0.24-0.56,0.24
				C155.59,94.42,155.39,94.34,155.24,94.18z M156.39,95.59v7.19h-1.19v-7.19H156.39z"/>
			<path class="st13" d="M159.73,102.44c-0.55-0.31-0.98-0.74-1.29-1.31c-0.31-0.56-0.47-1.22-0.47-1.96c0-0.73,0.16-1.38,0.48-1.95
				c0.32-0.56,0.75-1,1.31-1.3c0.55-0.3,1.17-0.45,1.85-0.45c0.68,0,1.3,0.15,1.85,0.45c0.55,0.3,0.99,0.73,1.31,1.29
				c0.32,0.56,0.48,1.21,0.48,1.95s-0.16,1.4-0.49,1.96c-0.33,0.56-0.77,1-1.33,1.31c-0.56,0.31-1.18,0.46-1.86,0.46
				C160.89,102.89,160.28,102.74,159.73,102.44z M162.77,101.54c0.38-0.2,0.68-0.5,0.91-0.9c0.23-0.4,0.35-0.89,0.35-1.47
				s-0.11-1.07-0.34-1.47c-0.23-0.4-0.52-0.7-0.89-0.9c-0.37-0.2-0.76-0.3-1.19-0.3c-0.44,0-0.84,0.1-1.2,0.3
				c-0.36,0.2-0.65,0.5-0.87,0.9c-0.22,0.4-0.33,0.89-0.33,1.47c0,0.59,0.11,1.08,0.32,1.48c0.21,0.4,0.5,0.7,0.86,0.9
				c0.36,0.2,0.75,0.3,1.18,0.3C161.99,101.85,162.39,101.74,162.77,101.54z"/>
			<path class="st13" d="M172.45,96.25c0.54,0.53,0.81,1.29,0.81,2.29v4.24h-1.18v-4.07c0-0.72-0.18-1.27-0.54-1.65
				c-0.36-0.38-0.85-0.57-1.47-0.57c-0.63,0-1.13,0.2-1.5,0.59c-0.37,0.39-0.56,0.97-0.56,1.72v3.97h-1.19v-7.19h1.19v1.02
				c0.24-0.37,0.56-0.65,0.96-0.85c0.41-0.2,0.85-0.3,1.34-0.3C171.2,95.46,171.9,95.72,172.45,96.25z"/>
			<path class="st13" d="M179.85,94.61v3.06h3.33v0.98h-3.33v3.15h3.73v0.98h-4.92v-9.17h4.92v0.98H179.85z"/>
			<path class="st13" d="M191.03,96.25c0.54,0.53,0.81,1.29,0.81,2.29v4.24h-1.18v-4.07c0-0.72-0.18-1.27-0.54-1.65
				c-0.36-0.38-0.85-0.57-1.47-0.57c-0.63,0-1.13,0.2-1.5,0.59c-0.37,0.39-0.56,0.97-0.56,1.72v3.98h-1.19v-7.2h1.19v1.02
				c0.24-0.37,0.56-0.65,0.96-0.85c0.41-0.2,0.86-0.3,1.35-0.3C189.78,95.46,190.49,95.72,191.03,96.25z"/>
			<path class="st13" d="M202.75,100.74h-3.99l-0.73,2.03h-1.26l3.31-9.09h1.38l3.29,9.09h-1.26L202.75,100.74z M202.41,99.77
				l-1.65-4.62l-1.65,4.62H202.41z"/>
			<path class="st13" d="M206.19,97.22c0.3-0.56,0.71-0.99,1.24-1.29c0.53-0.31,1.13-0.46,1.82-0.46c0.88,0,1.61,0.21,2.18,0.64
				c0.57,0.43,0.95,1.02,1.13,1.78h-1.29c-0.12-0.44-0.36-0.78-0.71-1.04c-0.35-0.25-0.79-0.38-1.32-0.38
				c-0.68,0-1.23,0.23-1.65,0.7s-0.63,1.13-0.63,1.99c0,0.87,0.21,1.53,0.63,2.01c0.42,0.47,0.97,0.71,1.65,0.71
				c0.52,0,0.96-0.12,1.31-0.37c0.35-0.24,0.59-0.59,0.72-1.05h1.29c-0.19,0.73-0.58,1.32-1.15,1.76c-0.58,0.44-1.3,0.66-2.16,0.66
				c-0.68,0-1.29-0.15-1.82-0.46c-0.53-0.31-0.94-0.74-1.24-1.3c-0.3-0.56-0.45-1.22-0.45-1.97
				C205.74,98.43,205.89,97.78,206.19,97.22z"/>
			<path class="st13" d="M215.6,96.57v4.24c0,0.35,0.07,0.6,0.22,0.74c0.15,0.14,0.41,0.22,0.77,0.22h0.88v1.01h-1.08
				c-0.66,0-1.16-0.15-1.5-0.46c-0.33-0.31-0.5-0.81-0.5-1.51v-4.24h-0.93v-0.98h0.93v-1.81h1.19v1.81h1.88v0.98H215.6z"/>
			<path class="st13" d="M218.96,94.18c-0.16-0.16-0.24-0.35-0.24-0.58s0.08-0.42,0.24-0.58c0.16-0.16,0.35-0.24,0.58-0.24
				c0.22,0,0.4,0.08,0.56,0.24c0.15,0.16,0.23,0.35,0.23,0.58s-0.08,0.42-0.23,0.58c-0.15,0.16-0.34,0.24-0.56,0.24
				C219.31,94.42,219.12,94.34,218.96,94.18z M220.12,95.59v7.19h-1.19v-7.19H220.12z"/>
			<path class="st13" d="M223.45,102.44c-0.55-0.31-0.98-0.74-1.29-1.31c-0.31-0.56-0.47-1.22-0.47-1.96c0-0.73,0.16-1.38,0.48-1.95
				c0.32-0.56,0.75-1,1.31-1.3c0.55-0.3,1.17-0.45,1.85-0.45c0.68,0,1.3,0.15,1.85,0.45c0.55,0.3,0.99,0.73,1.31,1.29
				c0.32,0.56,0.48,1.21,0.48,1.95s-0.16,1.4-0.49,1.96c-0.33,0.56-0.77,1-1.33,1.31c-0.56,0.31-1.18,0.46-1.86,0.46
				C224.61,102.89,224,102.74,223.45,102.44z M226.49,101.54c0.38-0.2,0.68-0.5,0.91-0.9c0.23-0.4,0.35-0.89,0.35-1.47
				s-0.11-1.07-0.34-1.47c-0.23-0.4-0.52-0.7-0.89-0.9c-0.37-0.2-0.76-0.3-1.19-0.3c-0.44,0-0.84,0.1-1.2,0.3s-0.65,0.5-0.87,0.9
				c-0.22,0.4-0.33,0.89-0.33,1.47c0,0.59,0.11,1.08,0.32,1.48c0.21,0.4,0.5,0.7,0.86,0.9c0.36,0.2,0.75,0.3,1.18,0.3
				C225.71,101.85,226.11,101.74,226.49,101.54z"/>
			<path class="st13" d="M236.17,96.25c0.54,0.53,0.81,1.29,0.81,2.29v4.24h-1.18v-4.07c0-0.72-0.18-1.27-0.54-1.65
				c-0.36-0.38-0.85-0.57-1.47-0.57c-0.63,0-1.13,0.2-1.5,0.59c-0.37,0.39-0.56,0.97-0.56,1.72v3.97h-1.19v-7.19h1.19v1.02
				c0.24-0.37,0.56-0.65,0.96-0.85c0.41-0.2,0.85-0.3,1.34-0.3C234.92,95.46,235.63,95.72,236.17,96.25z"/>
		</g>
	</g>
	<line class="st19" x1="125.88" y1="57.56" x2="125.88" y2="105.49"/>
</g>
</svg>
